<svg width="138" height="42" fill="none" xmlns="http://www.w3.org/2000/svg"><path d="M57.697 12.09c1.466 0 2.082 1.218 2.082 3.344l-4.951.063c.314-2.095 1.328-3.394 2.865-3.394l.004-.013Zm4.951 9.94c-1.027.541-1.745.922-3.051.922-3.175 0-4.87-2.382-4.87-5.995a8.259 8.259 0 0 1 .03-.896l7.599-.031c.31 0 .372-.35.372-.918 0-2.476-1.493-3.649-3.893-3.649-3.985 0-6.912 3.013-6.912 6.756 0 3.237 2.183 6.157 6.137 6.157 1.74 0 3.237-.574 4.792-2.065.093-.125-.124-.38-.217-.286l.013.005ZM42.668 24c.806 0 1.865-.063 3.02-.063 1.156 0 2.272.063 3.1.063.124 0 .124-.381 0-.381-1.403 0-1.771-.48-1.771-2.19V1.345c0-.13-.248-.349-.443-.349a.233.233 0 0 0-.124.032l-4.384 2.108c-.155.063.031.448.186.38a3.096 3.096 0 0 1 1.253-.38c.718 0 .935.632.935 2.091V21.43c0 1.71-.403 2.189-1.771 2.189-.129 0-.129.38 0 .38Zm-9.4 0c.81 0 1.868-.063 3.02-.063 1.151 0 2.276.063 3.1.063.123 0 .123-.381 0-.381-1.404 0-1.772-.48-1.772-2.19V1.345c0-.13-.252-.349-.443-.349a.233.233 0 0 0-.124.032l-4.37 2.108c-.155.063.031.448.186.38a3.13 3.13 0 0 1 1.23-.38c.718 0 .935.632.935 2.091V21.43c0 1.71-.403 2.189-1.771 2.189-.124 0-.124.38 0 .38h.009Zm-8.4-11.91c1.466 0 2.085 1.204 2.085 3.331l-4.946.076c.31-2.095 1.329-3.394 2.86-3.394v-.013Zm4.95 9.94c-1.027.541-1.74.922-3.05.922-3.175 0-4.871-2.382-4.871-5.995a8.259 8.259 0 0 1 .03-.896l7.595-.031c.31 0 .372-.35.372-.918 0-2.476-1.492-3.649-3.888-3.649-3.968.005-6.895 3.018-6.895 6.76 0 3.238 2.179 6.157 6.129 6.157 1.74 0 3.237-.573 4.795-2.064.093-.125-.128-.38-.221-.287h.005ZM7.94 23.372c-2.147 0-2.462-.605-2.462-1.966V13.72c.749-.063 1.435-.063 1.87-.063 3.271 0 4.826 2.239 4.826 5.328 0 2.794-1.276 4.41-4.234 4.41v-.022ZM7.191 4.689c2.214 0 3.299 1.428 3.299 3.774 0 2.445-1.151 4.38-3.702 4.38-.062 0-.562 0-1.328-.032V6.802c0-1.741.443-2.09 1.713-2.09l.018-.023Zm2.524 8.153c2.396-.954 3.702-2.664 3.702-4.665 0-2.57-1.993-4.124-5.694-4.124-1.218 0-2.617.193-3.769.193-1.434 0-2.772-.099-3.83-.099-.093 0-.093.38 0 .38 1.93 0 2.365.381 2.365 2.19V21.43c0 1.84-.496 2.189-2.396 2.189-.124 0-.124.38 0 .38 1.058 0 2.427-.062 3.861-.062 1.435 0 3.33.188 4.512.188 3.924 0 6.85-2.539 6.85-5.901 0-2.888-2.178-4.979-5.6-5.373v-.009ZM91.926 4.17c-.885 0-1.4.098-2.395.098-1.869 0-2.803-.098-4.048-.098-.093 0-.093.38 0 .38 1.9 0 2.272 1.46.935 3.68l-3.17 5.266-4.517-7.038c-.718-1.11-.443-1.908.885-1.908.093 0 .093-.38 0-.38-1.12 0-3.206.098-4.92.098-.655 0-1.368-.098-2.023-.098-.124 0-.124.38 0 .38.886 0 1.807.667 3.299 3.018l4.734 7.325v6.537c0 1.84-.372 2.189-2.396 2.189-.093 0-.093.38 0 .38 1.058 0 2.427-.062 3.861-.062 1.523 0 2.83.063 3.888.063.093 0 .093-.381 0-.381-2.055 0-2.364-.35-2.364-2.19v-7.1l3.542-5.87c1.368-2.315 3.33-3.904 4.667-3.904.093 0 .093-.38 0-.38l.022-.005Zm15.56 20.009c5.314-2.66 7.767-9.031 5.172-14.328-2.24-4.575-7.735-7.342-13.23-4.589-4.517 2.266-8.325 7.965-5.314 14.13 2.466 5.02 8.014 7.473 13.372 4.787Zm.611-1.16c-3.958 1.988-8.798-.65-11.486-6.134-2.276-4.634-1.634-8.507 2.05-10.342 4.295-2.154 8.856.407 11.42 5.637 2.493 5.09 1.329 9.187-1.984 10.839ZM134.409 8.06v8.897c0 4.06-2.117 6.344-5.633 6.344-3.613 0-5.853-2.315-5.853-7.455V6.802c0-1.79.34-2.238 2.364-2.238.128 0 .128-.38 0-.38-1.027 0-2.333.098-3.857.098-1.523 0-2.772-.099-3.83-.099-.124 0-.124.38 0 .38 2.024 0 2.365.381 2.365 2.19v10.204c0 4.66 3.205 7.486 7.784 7.486s7.625-2.888 7.625-7.518V8.06c0-2.189.886-3.492 2.555-3.492.093 0 .093-.38 0-.38-.885 0-1.961.098-3.051.098-1.275 0-2.302-.098-3.268-.098-.124 0-.124.38 0 .38 1.803 0 2.799 1.303 2.799 3.492ZM47.652 39.804a1.553 1.553 0 0 1-.846.587c-.22 0-.3-.255-.22-.743l.53-2.964c.08-.448.195-.945.195-.999 0-.053-.062-.094-.336-.094-.275 0-.496.094-.523.229v.04c-.522 2.91-1.514 4.544-2.32 4.544-.47 0-.642-.447-.443-1.41l.416-2.113c.195-.945.027-1.303-.442-1.303-.47 0-.917.372-1.475 1.039-.066.067.04.17.102.103.328-.332.615-.556.797-.556.181 0 .314.197.208.717l-.47 2.364c-.247 1.227.054 1.755.798 1.755.925 0 1.771-1.034 2.4-2.75l-.262 1.46c-.146.865-.04 1.236.443 1.236s.94-.318 1.541-1.034c.049-.054-.053-.175-.106-.108h.013Zm6.642 0c-.327.332-.602.574-.797.574-.194 0-.288-.215-.194-.73l.416-2.369c.221-1.222-.04-1.755-.784-1.755-.939 0-1.798 1.039-2.413 2.754l.26-1.464c.147-.864.04-1.236-.442-1.236-.483 0-.925.318-1.523 1.039-.067.067.04.17.102.103.208-.287.509-.493.85-.582.208 0 .297.25.208.743l-.553 2.968c-.08.448-.195.945-.195.999 0 .053.066.09.336.09s.496-.09.523-.225c.522-2.937 1.527-4.584 2.333-4.584.474 0 .616.447.443 1.41l-.38 2.113c-.156.896-.054 1.299.442 1.299s.917-.372 1.488-1.035c.053-.067-.053-.174-.115-.107l-.005-.005Zm6.846-8.506c0-.036-.08-.13-.146-.103l-1.798.895c-.08.027 0 .184.062.157.757-.385.965-.21.85.479l-.535 2.95a1.18 1.18 0 0 0-.611-.147c-1.475 0-3.158 1.688-3.499 3.63-.234 1.344.381 1.845 1.045 1.845.94 0 1.825-1.02 2.555-2.538l-.221 1.186c-.168.896-.066 1.299.443 1.299s.912-.372 1.474-1.035c.067-.067-.04-.174-.102-.107-.34.331-.615.573-.81.573-.195 0-.301-.215-.195-.73l1.47-8.354h.018Zm-4.136 8.954c-.575 0-.885-.52-.69-1.701.274-1.608 1.067-2.485 2.098-2.498.611 0 1.006.398.886 1.155-.181 1.025-1.187 3.044-2.28 3.044h-.014Zm7.86-4.732c-1.536 0-2.803 1.49-3.05 2.847-.249 1.357.234 2.615 1.655 2.615a2.901 2.901 0 0 0 1.944-.81c.04-.054-.053-.144-.093-.108-.36.286-.804.444-1.262.448-1.098 0-1.528-1.075-1.293-2.498 1.528-.251 2.896-.954 3.016-1.751.075-.448-.262-.72-.917-.72v-.023Zm-.102.998c-.146.663-.885 1.075-1.97 1.303.195-1.066.677-1.939 1.448-1.939.354 0 .624.184.522.636Zm5.46-.944c-.717 0-1.408 1.477-1.89 3.084l.225-1.495c.195-1.195.04-1.58-.443-1.58-.482 0-.912.308-1.461.958-.053.053.053.16.106.107.192-.253.464-.431.77-.506.209 0 .377.224.236 1.088l-.466 2.62c-.066.447-.199.944-.199.998 0 .053.053.09.328.09s.496-.09.522-.225c.275-1.526 1.254-4.383 1.825-4.383.274 0 .34.421.73.421a.485.485 0 0 0 .47-.412c.08-.412-.39-.757-.77-.757l.017-.008Zm8.254 0a.512.512 0 0 0-.534.294.53.53 0 0 0-.05.211.85.85 0 0 0 .26.533c.275.331.532.663.377 1.621-.181 1.236-.952 2.033-1.59 2.033a1.252 1.252 0 0 1-.65-.21 1.272 1.272 0 0 1-.448-.52c.46-.768.761-1.623.886-2.512.128-.824 0-1.397-.443-1.397s-.859.77-1.054 1.993a5.314 5.314 0 0 0 .027 2.113 1.435 1.435 0 0 1-.992.533c-.629 0-.992-.636-.886-1.648.186-.953.483-1.88.886-2.762.066-.135.053-.162-.106-.162h-1.174c-.784 0-.939.251-1.328 1.397-.053.09.102.13.141.067.169-.532.328-.667.979-.667h.65c.196 0 .222.094.094.345a8.882 8.882 0 0 0-.886 2.275c-.16 1.034.248 1.898 1.147 1.898a2.223 2.223 0 0 0 1.577-.895c.065.242.203.459.395.62.192.16.428.256.676.275 1 0 2.307-1.46 2.555-3.533.129-1.092 0-1.902-.562-1.902h.053Zm-2.931 1.79c.061-.447.22-.796.469-.796.248 0 .416.304.323.895a4.532 4.532 0 0 1-.65 1.742 3.76 3.76 0 0 1-.142-1.85v.01Zm7.9-1.835c-1.542 0-2.804 1.49-3.052 2.847-.248 1.357.235 2.615 1.656 2.615a2.92 2.92 0 0 0 1.944-.81c.036-.054-.053-.144-.093-.108a2.066 2.066 0 0 1-1.266.448c-1.094 0-1.523-1.075-1.289-2.498 1.523-.251 2.896-.954 3.011-1.751.08-.448-.26-.72-.912-.72v-.023Zm-.107.998c-.142.663-.886 1.075-1.966 1.303.195-1.066.677-1.939 1.448-1.939.35 0 .624.184.518.636Zm6.916 3.277c-.327.345-.628.574-.81.574-.181 0-.274-.242-.195-.73l.77-4.2c0-.04-.132-.08-.159-.027-.072.176-.188.33-.336.448a1.209 1.209 0 0 0-.886-.363c-1.412 0-3.223 2.239-3.485 4.097-.128.98.222 1.379.797 1.379.886 0 1.958-.994 2.71-2.592l-.208 1.24c-.168.927-.04 1.298.443 1.298s.917-.371 1.475-1.034c.04-.054-.062-.161-.116-.107v.017Zm-3.72.448c-.442 0-.637-.412-.495-1.383.248-1.594 1.173-2.79 2.077-2.803.624 0 .885.492.744 1.195-.262 1.303-1.4 2.991-2.325 2.991Zm8.334-4.665c-.717 0-1.408 1.477-1.89 3.085l.261-1.505c.195-1.195.035-1.58-.443-1.58s-.916.309-1.461.958c-.053.054.049.161.102.108.192-.253.464-.432.77-.506.208 0 .377.224.235 1.088l-.465 2.614c-.066.448-.195.945-.195.999 0 .053.053.09.328.09.274 0 .491-.09.518-.225.275-1.526 1.253-4.383 1.829-4.383.27 0 .336.421.73.421a.485.485 0 0 0 .47-.412c.075-.412-.394-.757-.77-.757l-.019.005Z" fill="#fff"/></svg>