<svg width="103" height="40" fill="none" xmlns="http://www.w3.org/2000/svg"><path d="m50.89 18.547-.04-7.124-1.188 3.602H47.82l-1.31-3.848-.164 7.86-2.989-.04.246-14.166 2.989.041v.532l2.129 6.264 2.047-6.223V5.16h2.988l.123 13.428-2.989-.04Zm13.02-.247h-2.047l-.041-6.632-3.521 6.879h-.041l-2.456-.041.327-13.675h2.006l-.164 8.066 4.176-7.943 1.679.082.082 13.265Zm4.79.165h-2.948l.123-13.593h1.679c.245-.04.49-.04.737-.04 1.228 0 2.579.408 3.52 1.104.86.656 1.31 1.474 1.31 2.375 0 1.106-.45 3.521-4.34 3.93l-.081 6.224Zm.082-11.505v3.112c2.21-.287 2.21-1.351 2.21-1.802 0-.286-.245-.532-.45-.655-.49-.327-1.105-.532-1.76-.655Zm10.154 4.38c2.251.206 4.257 1.393 4.257 3.85 0 2.251-2.784 3.397-4.708 3.397h-2.374a2573.97 2573.97 0 0 1-.123-13.715h5.936V6.92c-.737 0-2.538.041-3.03 0l.042 4.422Zm2.17 3.85c0-.042 0-1.474-2.17-1.761v3.07c.614-.081 1.269-.286 1.72-.655.204-.163.45-.368.45-.655Zm6.182-7.984v2.21h4.053v2.375h-3.93l-.123 3.93h4.462v2.826h-7.165V4.83h7.165v2.375h-4.462Zm5.117 8.844 1.924-1.147c.942 1.515 1.72 1.474 2.007 1.474.86-.041 1.883-1.27 1.883-2.006 0-.574-1.064-1.679-2.497-1.679V10.44c.818 0 1.72-.368 2.251-.941.287-.328.41-.614.41-.737-.041-.737-.492-1.802-1.597-1.802-.532 0-1.27.123-1.638 1.106l-2.129-.82c.614-1.637 1.966-2.538 3.726-2.538 2.375 0 3.767 2.048 3.89 3.972.04.819-.328 1.678-1.024 2.415-.205.205-.41.369-.614.533.9.737 1.474 1.72 1.474 2.784 0 1.842-1.883 4.176-4.053 4.258h-.164c-1.065-.041-2.58-.492-3.849-2.62ZM45.732 36.438l-2.702-.04.286-13.675H49.5v2.702h-3.562l-.205 11.013Zm8.966-.082H51.75l.123-13.592h1.679c.245-.041.491-.041.737-.041 1.228 0 2.579.41 3.52 1.105.86.655 1.31 1.474 1.31 2.375 0 1.105-.45 3.52-4.34 3.93l-.081 6.223Zm.082-11.504v3.111c2.21-.286 2.21-1.35 2.21-1.801 0-.287-.245-.532-.45-.655-.49-.328-1.146-.533-1.76-.655Zm10.85 8.475h-3.358l-.737 3.111H59.12l3.603-13.715h3.52l3.112 13.551-3.03.041c-.122-.41-.532-2.252-.695-2.988Zm-.655-2.99-.86-4.503-1.065 4.504h1.925Zm13.142-7.614v14.043h-2.375V30.87h-2.088l-.082 5.527-2.374-.04.204-13.634 2.375.04-.082 4.914h2.047v-4.954h2.375Zm11.423 13.47h-2.048l-.04-6.674-3.522 6.92h-.04l-2.457-.042.327-13.674h2.006l-.163 8.065 4.176-7.942 1.678.081.082 13.266Zm11.422 1.924-1.924.123-.123-1.925-5.773.082v-.204h-.04l-.205-13.43 2.333-.04.164 10.645 2.047-.041-.163-10.563 2.333-.041.164 10.563h.942v2.047l.245 2.784ZM2.375 30.256c.409.9.9 1.72 1.473 2.416 1.147 1.392 2.662 2.456 4.709 3.275a16.43 16.43 0 0 1-.369-2.047c-.164-1.556-.164-3.275 0-5.159-1.801.819-3.766 1.31-5.813 1.515Zm19.938-9.866c-1.76.531-3.48.777-5.117.777h-.492c-.532.9-1.105 1.72-1.72 2.497-1.596 1.966-3.725 3.644-6.14 4.79-.205 2.007-.246 3.767-.041 5.405.081.778.245 1.597.45 2.375.819.286 1.76.573 2.907.86.204-1.802.737-3.317 1.556-4.504 2.292-3.276 6.714-3.93 10.03-3.112 3.44.819 6.387 3.153 7.78 6.142a16.415 16.415 0 0 0 3.889-4.177c-3.03-.204-5.364-.86-7.329-2.047-3.111-1.924-5.281-5.322-5.773-9.007ZM4.667 7.656c-1.392 1.433-2.538 2.825-3.03 4.75-.654 2.579-.613 5.854-.572 8.72v2.293c0 2.252.327 4.38 1.023 6.223 2.13-.205 4.258-.737 6.182-1.597.205-1.924.614-3.89.942-5.609.205-1.064.41-2.17.737-3.275-1.146-.737-2.088-1.597-2.866-2.62-1.924-2.703-2.334-6.06-2.416-8.885Z" fill="#fff"/><path d="M8.966 27.759c2.211-1.106 4.135-2.62 5.568-4.463.533-.655 1.024-1.392 1.515-2.17a13.8 13.8 0 0 1-5.527-1.638c-.287 1.024-.491 2.047-.696 3.07-.287 1.598-.614 3.4-.86 5.2Zm11.3-16.132a28.7 28.7 0 0 1 4.094.574c.901-1.351 2.047-2.539 3.317-3.399 1.064-.737 2.251-1.269 3.561-1.637C28.7 4.79 25.67 3.03 22.436 2.129l-1.433 6.387a90.142 90.142 0 0 0-.737 3.111Zm-.164.573c-.614 2.457-1.514 5.528-3.03 8.353h.124c1.596 0 3.316-.246 5.076-.778 0-.205-.04-.41-.04-.573-.041-2.211.573-4.463 1.719-6.428a25.076 25.076 0 0 0-3.849-.573Zm-6.386-9.007c-.901.287-1.802.615-2.703.86-1.76.491-3.807 1.065-5.24 2.498l-.492.49c.041 2.826.328 6.347 2.334 9.09.655.9 1.515 1.72 2.539 2.375.736-2.375 1.76-4.054 3.234-5.16 1.597-1.268 3.644-1.841 6.223-1.8.287-1.106.532-2.252.737-3.194l1.433-6.428c-2.661-.573-5.404.328-8.065 1.27Z" fill="#fff"/><path d="M10.686 18.874c1.678.983 3.644 1.556 5.69 1.679 1.515-2.784 2.457-5.855 3.071-8.352-2.415 0-4.258.532-5.69 1.637-1.352 1.106-2.334 2.703-3.071 5.036Zm24.647-6.387c-.82.86-1.76 1.72-2.784 2.539.45.245.86.491 1.228.737 1.433.941 2.743 2.292 3.971 4.012a15.152 15.152 0 0 0-.368-1.965c-.41-1.843-1.106-3.603-2.047-5.323Zm-3.316 2.948a28.541 28.541 0 0 1-4.054 2.58c-1.76.941-3.439 1.678-5.076 2.21.45 3.521 2.538 6.796 5.527 8.557 1.965 1.146 4.298 1.802 7.37 1.965.327-.573.613-1.187.859-1.76.983-2.375 1.392-5.118 1.228-7.943-1.351-2.129-2.825-3.767-4.422-4.79-.409-.246-.86-.532-1.432-.819Zm-.287-7.779c-1.351.328-2.62.901-3.726 1.638a11.84 11.84 0 0 0-3.03 3.03c2.047.49 4.627 1.187 7.001 2.374a22.409 22.409 0 0 0 3.071-2.784c-.778-1.35-1.72-2.58-2.784-3.726a3.275 3.275 0 0 1-.532-.532ZM22.886 19.61c1.556-.49 3.153-1.227 4.832-2.128 1.31-.737 2.579-1.515 3.725-2.334-2.333-1.146-4.83-1.801-6.796-2.252-1.187 1.925-1.801 4.136-1.76 6.305a.695.695 0 0 0 0 .41ZM12.774 37.216c.245.041.491.123.737.164 4.258.941 8.434 1.72 12.405.819 1.76-.41 3.52-1.188 5.118-2.252-1.27-2.866-4.095-5.118-7.41-5.896-3.685-.9-7.575.287-9.376 2.907-.778 1.106-1.27 2.538-1.474 4.258Z" fill="#fff"/></svg>