<svg width="59" height="40" fill="none" xmlns="http://www.w3.org/2000/svg"><path fill-rule="evenodd" clip-rule="evenodd" d="M9.842 1.11C2.935 5.038 1.17 6.089.782 6.508c-.24.26-.515.75-.61 1.09C.059 8.011.002 13.01 0 22.622c0 12.775.028 14.446.252 14.766.301.43.593.455 1.136.1l.4-.264.004-14.096c.004-13.358.02-14.131.304-14.748.166-.358.475-.808.688-1 .214-.192 2.389-1.494 4.834-2.894 2.445-1.4 4.587-2.633 4.76-2.741C12.96 1.38 12.65 0 11.985 0c-.106 0-1.072.5-2.144 1.11Zm4.094 2.272c-3.41 1.95-3.864 2.535-4.005 5.15l-.088 1.618-.947.553c-1.399.816-3.144 2.534-3.706 3.648-1.044 2.068-1.018 1.741-1.077 13.799-.055 11.56-.047 11.714.657 11.85.323.062 10.34-5.64 11.073-6.302.954-.862.916-.183.916-16.19 0-13.163-.027-14.746-.256-14.974-.14-.14-.342-.256-.447-.255-.106 0-1.06.496-2.12 1.103Zm12.047 5.271c-1.865.245-2.878 1.197-2.878 2.703 0 .692.075.898.476 1.298.58.58.888.707 3.26 1.344 1.026.276 1.96.58 2.075.675.115.096.21.383.21.638 0 .632-.617 1.009-1.77 1.083-1.142.073-1.955-.303-2.287-1.058-.23-.522-.247-.529-1.343-.529-1.242 0-1.27.037-.803 1.064.667 1.47 2.19 2.12 4.662 1.991 1.246-.065 1.63-.155 2.354-.55.997-.543 1.465-1.265 1.464-2.258-.002-1.448-.865-2.075-3.821-2.773-1.803-.425-2.362-.713-2.362-1.216 0-1.196 3.212-1.28 3.51-.092.1.397.158.417 1.23.417h1.124l-.104-.447c-.206-.89-.644-1.419-1.538-1.86-.985-.485-2.04-.616-3.46-.43Zm9.697.174c-.127.166-2.057 4.516-3.608 8.136l-.332.773h2.354l.387-.976.388-.977h3.94l.378.977.379.976h2.402l-.331-.773c-1.552-3.62-3.481-7.97-3.609-8.136-.095-.124-.551-.203-1.174-.203-.622 0-1.078.079-1.174.203Zm4.62-.081c-.04.067.677 2.099 1.594 4.515l1.667 4.394 1.298.046 1.3.047 1.48-3.87a337.149 337.149 0 0 1 1.738-4.485c.315-.749.223-.808-1.15-.737l-.959.05-1.139 3.05c-.626 1.677-1.184 3.05-1.239 3.05-.055 0-.558-1.262-1.118-2.806-.56-1.543-1.085-2.935-1.167-3.091-.118-.226-.363-.285-1.19-.285-.574 0-1.076.055-1.115.122Zm10.141 4.431v4.559h7.81v-1.627H52.72V13.83h5.062l-.05-.773-.05-.773-2.48-.045-2.482-.045v-1.772l2.725-.045 2.726-.045V8.706l-3.864-.043-3.865-.044v4.56Zm-12.515.37.307.772h-1.377c-1.565 0-1.47.21-.734-1.627.769-1.918.64-1.823 1.094-.814.222.492.541 1.243.71 1.668Zm-2.92 6.864c-2.194.712-2.7 3.262-.851 4.29.321.18 1.463.553 2.536.83 1.361.352 2.04.609 2.238.848.368.443.36.526-.098 1.058-.317.37-.545.456-1.347.514-1.3.094-2.105-.243-2.428-1.016l-.24-.575h-2.24l.12.533c.41 1.813 2 2.653 4.796 2.53 2.565-.112 3.837-1.05 3.837-2.83 0-1.497-.846-2.107-3.824-2.758-1.941-.424-2.478-.75-2.277-1.383.34-1.074 2.867-1.059 3.425.02.231.447.298.471 1.315.471h1.07l-.11-.448a2.756 2.756 0 0 0-1.397-1.825c-.604-.335-.981-.41-2.27-.446-1.003-.028-1.795.037-2.255.187Zm-10.712 4.12a461.639 461.639 0 0 0-1.932 4.48c-.102.268-.01.289 1.065.245l1.176-.049.359-.894.359-.895 1.968-.046 1.968-.046.381.982.38.98H31.2c.65 0 1.18-.033 1.18-.075 0-.041-.797-1.9-1.773-4.132-.975-2.23-1.822-4.21-1.882-4.399-.098-.31-.23-.342-1.359-.34h-1.25l-1.82 4.19Zm3.76-.255c.32.778.583 1.455.583 1.505 0 .05-.586.09-1.302.09-.716 0-1.301-.047-1.301-.106 0-.305 1.236-3.11 1.329-3.015.06.061.371.748.691 1.526Zm14.577 4.272v.904h1.807l-.05-.855-.049-.854-.854-.05-.854-.048v.903Z" fill="#fff"/></svg>