<svg width="138" height="42" viewBox="0 0 138 42" fill="none" xmlns="http://www.w3.org/2000/svg">
<path d="M57.6974 12.0899C59.1631 12.0899 59.7786 13.3077 59.7786 15.4344L54.828 15.4971C55.1424 13.4018 56.1565 12.1033 57.693 12.1033L57.6974 12.0899ZM62.648 22.0295C61.6207 22.5712 60.9033 22.9518 59.597 22.9518C56.4221 22.9518 54.7262 20.5699 54.7262 16.9567C54.7203 16.6579 54.7307 16.3589 54.7572 16.0613L62.3557 16.0299C62.6657 16.0299 62.7277 15.6807 62.7277 15.1121C62.7277 12.6361 61.2354 11.4631 58.8354 11.4631C54.8502 11.4631 51.9232 14.4763 51.9232 18.2193C51.9232 21.4564 54.1063 24.3756 58.0605 24.3756C59.8007 24.3756 61.2974 23.8025 62.8517 22.3115C62.9447 22.1862 62.7277 21.931 62.6347 22.025L62.648 22.0295ZM42.6686 23.9995C43.4745 23.9995 44.5328 23.9368 45.6886 23.9368C46.8443 23.9368 47.9601 23.9995 48.7882 23.9995C48.9122 23.9995 48.9122 23.6189 48.7882 23.6189C47.3845 23.6189 47.017 23.1398 47.017 21.4295V1.34446C47.017 1.21462 46.769 0.99523 46.5742 0.99523C46.5308 0.993878 46.4879 1.00473 46.4502 1.02657L42.0664 3.13537C41.9114 3.19805 42.0974 3.5831 42.2524 3.51594C42.6388 3.301 43.0659 3.1713 43.5055 3.13537C44.2229 3.13537 44.4399 3.76667 44.4399 5.22626V21.4295C44.4399 23.1398 44.0369 23.6189 42.6686 23.6189C42.5402 23.6189 42.5402 23.9995 42.6686 23.9995ZM33.2679 23.9995C34.0782 23.9995 35.1365 23.9368 36.2878 23.9368C37.4391 23.9368 38.5638 23.9995 39.3875 23.9995C39.5114 23.9995 39.5114 23.6189 39.3875 23.6189C37.9838 23.6189 37.6162 23.1398 37.6162 21.4295V1.34446C37.6162 1.21462 37.3638 0.99523 37.1734 0.99523C37.13 0.993878 37.0871 1.00473 37.0494 1.02657L32.679 3.13537C32.524 3.19805 32.71 3.5831 32.8649 3.51594C33.2447 3.30399 33.6639 3.17438 34.0959 3.13537C34.8133 3.13537 35.0303 3.76667 35.0303 5.22626V21.4295C35.0303 23.1398 34.6273 23.6189 33.259 23.6189C33.1351 23.6189 33.1351 23.9995 33.259 23.9995H33.2679ZM24.8679 12.0899C26.3336 12.0899 26.9535 13.2943 26.9535 15.421L22.0074 15.4971C22.3173 13.4018 23.3358 12.1033 24.8679 12.1033V12.0899ZM29.8185 22.0295C28.7911 22.5712 28.0782 22.9518 26.7675 22.9518C23.5926 22.9518 21.8967 20.5699 21.8967 16.9567C21.8908 16.6579 21.9012 16.3589 21.9277 16.0613L29.5218 16.0299C29.8317 16.0299 29.8937 15.6807 29.8937 15.1121C29.8937 12.6361 28.4015 11.4631 26.0059 11.4631C22.0384 11.4676 19.1114 14.4808 19.1114 18.2238C19.1114 21.4609 21.29 24.38 25.2399 24.38C26.9801 24.38 28.4768 23.8069 30.0354 22.316C30.1284 22.1906 29.907 21.9354 29.814 22.0295H29.8185ZM7.93948 23.3726C5.79188 23.3726 5.47749 22.7682 5.47749 21.4071V13.7196C6.22583 13.657 6.91218 13.657 7.34613 13.657C10.6185 13.657 12.1727 15.8956 12.1727 18.9849C12.1727 21.7787 10.8974 23.395 7.93948 23.395V23.3726ZM7.19114 4.68899C9.40517 4.68899 10.49 6.11724 10.49 8.46333C10.49 10.9079 9.33875 12.8421 6.78819 12.8421C6.7262 12.8421 6.22583 12.8421 5.45978 12.8108V6.80226C5.45978 5.0606 5.90258 4.71137 7.17343 4.71137L7.19114 4.68899ZM9.71513 12.8421C12.1107 11.8884 13.417 10.1781 13.417 8.17679C13.417 5.60683 11.4244 4.05321 7.72251 4.05321C6.5048 4.05321 5.10554 4.24574 3.95424 4.24574C2.51956 4.24574 1.18229 4.14724 0.123985 4.14724C0.0309962 4.14724 0.0309962 4.52781 0.123985 4.52781C2.05461 4.52781 2.48856 4.90837 2.48856 6.71719V21.4295C2.48856 23.2697 1.99262 23.6189 0.0929889 23.6189C-0.0309963 23.6189 -0.0309963 23.9995 0.0929889 23.9995C1.15129 23.9995 2.51956 23.9368 3.95424 23.9368C5.38893 23.9368 7.28413 24.1248 8.46642 24.1248C12.3897 24.1248 15.3166 21.5862 15.3166 18.2238C15.3166 15.3359 13.138 13.245 9.71513 12.851V12.8421ZM91.9262 4.16962C91.0406 4.16962 90.5269 4.26812 89.5306 4.26812C87.662 4.26812 86.7277 4.16962 85.4834 4.16962C85.3904 4.16962 85.3904 4.55019 85.4834 4.55019C87.383 4.55019 87.755 6.00979 86.4177 8.23052L83.2472 13.4958L78.7306 6.45751C78.0133 5.34715 78.2878 4.55019 79.6162 4.55019C79.7092 4.55019 79.7092 4.16962 79.6162 4.16962C78.4959 4.16962 76.4103 4.26812 74.6967 4.26812C74.0413 4.26812 73.3284 4.16962 72.6731 4.16962C72.5491 4.16962 72.5491 4.55019 72.6731 4.55019C73.5587 4.55019 74.4797 5.21731 75.972 7.56788L80.7055 14.8927V21.4295C80.7055 23.2697 80.3336 23.6189 78.31 23.6189C78.217 23.6189 78.217 23.9995 78.31 23.9995C79.3683 23.9995 80.7365 23.9368 82.1712 23.9368C83.6945 23.9368 85.0007 23.9995 86.059 23.9995C86.152 23.9995 86.152 23.6189 86.059 23.6189C84.0044 23.6189 83.6945 23.2697 83.6945 21.4295V14.3285L87.2369 8.45886C88.6052 6.1441 90.5668 4.55467 91.9041 4.55467C91.997 4.55467 91.997 4.1741 91.9041 4.1741L91.9262 4.16962ZM107.486 24.1786C112.8 21.5191 115.253 15.1479 112.658 9.85129C110.418 5.27551 104.923 2.50855 99.4273 5.26208C94.9107 7.52758 91.1026 13.2271 94.1136 19.3923C96.5801 24.4114 102.128 26.8649 107.486 24.1786ZM108.097 23.0189C104.139 25.0069 99.2989 22.3697 96.6111 16.8851C94.3351 12.2511 94.9771 8.37827 98.6613 6.54258C102.956 4.38901 107.517 6.95001 110.081 12.1795C112.574 17.2701 111.41 21.3668 108.097 23.0189ZM134.409 8.06038V16.9567C134.409 21.0176 132.292 23.301 128.776 23.301C125.163 23.301 122.923 20.9863 122.923 15.8463V6.80226C122.923 5.01135 123.263 4.56362 125.287 4.56362C125.415 4.56362 125.415 4.18306 125.287 4.18306C124.26 4.18306 122.954 4.28156 121.43 4.28156C119.907 4.28156 118.658 4.18306 117.6 4.18306C117.476 4.18306 117.476 4.56362 117.6 4.56362C119.624 4.56362 119.965 4.94419 119.965 6.75301V16.9567C119.965 21.6176 123.17 24.4427 127.749 24.4427C132.328 24.4427 135.374 21.5549 135.374 16.9254V8.06038C135.374 5.87099 136.26 4.5681 137.929 4.5681C138.022 4.5681 138.022 4.18753 137.929 4.18753C137.044 4.18753 135.968 4.28603 134.878 4.28603C133.603 4.28603 132.576 4.18753 131.61 4.18753C131.486 4.18753 131.486 4.5681 131.61 4.5681C133.413 4.5681 134.409 5.87099 134.409 8.06038Z" fill="white"/>
<path d="M47.6523 39.8045C47.4441 40.0912 47.146 40.2979 46.8065 40.391C46.5851 40.391 46.5054 40.1358 46.5851 39.6478L47.1165 36.6839C47.1962 36.2361 47.3113 35.7392 47.3113 35.6854C47.3113 35.6317 47.2493 35.5914 46.9748 35.5914C46.7002 35.5914 46.4788 35.6854 46.4523 35.8198V35.86C45.9298 38.7703 44.9379 40.4045 44.132 40.4045C43.6626 40.4045 43.4899 39.9568 43.6892 38.9941L44.1054 36.8809C44.3002 35.9362 44.132 35.578 43.6626 35.578C43.1932 35.578 42.746 35.9496 42.1881 36.6167C42.1216 36.6839 42.2279 36.7868 42.2899 36.7197C42.6176 36.3884 42.9054 36.1645 43.087 36.1645C43.2685 36.1645 43.4014 36.3615 43.2951 36.8809L42.8257 39.2449C42.5777 40.4716 42.8788 41 43.6228 41C44.5482 41 45.394 39.9657 46.0228 38.2509L45.7615 39.7105C45.6154 40.5746 45.7216 40.9462 46.2043 40.9462C46.687 40.9462 47.1431 40.6283 47.7453 39.912C47.794 39.8583 47.6921 39.7374 47.639 39.8045H47.6523ZM54.2943 39.8045C53.9667 40.1358 53.6921 40.3776 53.4973 40.3776C53.3025 40.3776 53.2095 40.1627 53.3025 39.6478L53.7187 37.2793C53.9401 36.057 53.6788 35.5242 52.9349 35.5242C51.9962 35.5242 51.1371 36.563 50.5216 38.2778L50.7829 36.8137C50.929 35.9496 50.8228 35.578 50.3401 35.578C49.8574 35.578 49.4146 35.8959 48.8169 36.6167C48.7504 36.6839 48.8567 36.7868 48.9187 36.7197C49.1274 36.4326 49.4277 36.227 49.7689 36.1376C49.977 36.1376 50.0656 36.3884 49.977 36.8809L49.4235 39.8493C49.3438 40.297 49.2287 40.794 49.2287 40.8477C49.2287 40.9015 49.2951 40.9373 49.5652 40.9373C49.8353 40.9373 50.0611 40.8477 50.0877 40.7134C50.6102 37.7763 51.6154 36.1287 52.4213 36.1287C52.8951 36.1287 53.0368 36.5764 52.8641 37.539L52.4833 39.6523C52.3283 40.5478 52.4301 40.9507 52.9261 40.9507C53.422 40.9507 53.8427 40.5791 54.4139 39.9165C54.467 39.8493 54.3608 39.7418 54.2988 39.809L54.2943 39.8045ZM61.1401 31.2977C61.1401 31.2619 61.0604 31.1679 60.994 31.1947L59.1962 32.0902C59.1165 32.117 59.1962 32.2737 59.2582 32.2469C60.0154 31.8618 60.2235 32.0365 60.1084 32.726L59.5726 35.6765C59.3856 35.5728 59.1746 35.5218 58.9615 35.5287C57.487 35.5287 55.8043 37.2167 55.4633 39.1598C55.2287 40.503 55.8442 41.0044 56.5084 41.0044C57.4471 41.0044 58.3327 39.9836 59.0633 38.4658L58.8419 39.6523C58.6737 40.5478 58.7755 40.9507 59.2847 40.9507C59.794 40.9507 60.1969 40.5791 60.7593 39.9165C60.8257 39.8493 60.7194 39.7418 60.6574 39.809C60.3165 40.1403 60.0419 40.3821 59.8471 40.3821C59.6523 40.3821 59.546 40.1672 59.6523 39.6523L61.1224 31.2977H61.1401ZM57.0043 40.2523C56.4287 40.2523 56.1187 39.7329 56.3135 38.5509C56.5881 36.9435 57.3807 36.066 58.4124 36.0526C59.0235 36.0526 59.4176 36.451 59.298 37.2077C59.1165 38.233 58.1113 40.2523 57.0176 40.2523H57.0043ZM64.8641 35.5198C63.3276 35.5198 62.0611 37.0107 61.8132 38.3673C61.5652 39.7239 62.0478 40.982 63.4693 40.982C64.1943 40.9656 64.8873 40.6767 65.4132 40.1717C65.453 40.1179 65.36 40.0284 65.3202 40.0642C64.9598 40.3501 64.5162 40.5075 64.0582 40.5119C62.96 40.5119 62.5305 39.4374 62.7652 38.0136C64.2929 37.7629 65.6611 37.06 65.7807 36.263C65.856 35.8153 65.5194 35.5422 64.8641 35.5422V35.5198ZM64.7622 36.5182C64.6161 37.1808 63.8766 37.5928 62.7918 37.8211C62.9866 36.7555 63.4693 35.8824 64.2397 35.8824C64.594 35.8824 64.8641 36.066 64.7622 36.5182ZM70.222 35.5735C69.5047 35.5735 68.8139 37.051 68.3312 38.6583L68.5571 37.1629C68.7519 35.9675 68.5969 35.5825 68.1143 35.5825C67.6316 35.5825 67.2021 35.8914 66.653 36.5406C66.5999 36.5943 66.7062 36.7018 66.7593 36.648C66.9513 36.3952 67.2232 36.2166 67.5298 36.1421C67.7379 36.1421 67.9062 36.366 67.7645 37.2301L67.2995 39.8493C67.2331 40.297 67.1002 40.794 67.1002 40.8477C67.1002 40.9015 67.1534 40.9373 67.4279 40.9373C67.7025 40.9373 67.9239 40.8477 67.9504 40.7134C68.225 39.1867 69.2036 36.3302 69.7748 36.3302C70.0493 36.3302 70.1157 36.751 70.5054 36.751C70.6194 36.7502 70.7292 36.7082 70.8153 36.6327C70.9014 36.5572 70.9579 36.4531 70.9748 36.3391C71.0545 35.9272 70.5851 35.5825 70.2043 35.5825L70.222 35.5735ZM78.4759 35.5735C78.404 35.5641 78.3309 35.57 78.2614 35.591C78.1919 35.6119 78.1275 35.6474 78.0724 35.6951C78.0173 35.7427 77.9727 35.8016 77.9415 35.8678C77.9104 35.934 77.8933 36.0061 77.8914 36.0794C77.9119 36.2831 78.0047 36.4724 78.1526 36.6122C78.4272 36.9435 78.684 37.2749 78.529 38.233C78.3475 39.4687 77.577 40.2657 76.9394 40.2657C76.7077 40.2578 76.4826 40.1855 76.2889 40.0567C76.0952 39.928 75.9403 39.7478 75.8412 39.5359C76.3009 38.7676 76.6022 37.9132 76.7268 37.0241C76.8552 36.2003 76.7268 35.6272 76.284 35.6272C75.8412 35.6272 75.425 36.3973 75.2301 37.6196C75.0974 38.3186 75.1064 39.0375 75.2567 39.7329C75.1355 39.8848 74.9851 40.0103 74.8147 40.1019C74.6442 40.1934 74.4572 40.2491 74.2648 40.2657C73.636 40.2657 73.2729 39.6299 73.3792 38.618C73.5646 37.6648 73.8619 36.7374 74.2648 35.8556C74.3312 35.7213 74.318 35.6944 74.1586 35.6944H72.9851C72.2014 35.6944 72.0464 35.9451 71.6567 37.0913C71.6036 37.1808 71.7586 37.2211 71.7984 37.1585C71.9667 36.6257 72.1261 36.4913 72.777 36.4913H73.4279C73.6228 36.4913 73.6493 36.5854 73.5209 36.8361C73.1228 37.549 72.8247 38.3145 72.6353 39.1105C72.4759 40.1448 72.8833 41.0089 73.7822 41.0089C74.092 40.9786 74.3922 40.8833 74.6637 40.7291C74.9351 40.5749 75.1717 40.3653 75.3586 40.1135C75.4237 40.3564 75.5618 40.5729 75.7537 40.7333C75.9456 40.8936 76.1819 40.9899 76.4301 41.0089C77.4309 41.0089 78.7372 39.5493 78.9851 37.4763C79.1135 36.3839 78.9851 35.5735 78.4228 35.5735H78.4759ZM75.5445 37.3644C75.6065 36.9167 75.7659 36.5675 76.0139 36.5675C76.2619 36.5675 76.4301 36.8719 76.3372 37.4629C76.2426 38.083 76.0209 38.6763 75.6862 39.2046C75.4854 38.6102 75.4366 37.974 75.5445 37.3555V37.3644ZM83.4442 35.5287C81.9032 35.5287 80.6412 37.0197 80.3932 38.3763C80.1453 39.7329 80.6279 40.991 82.0493 40.991C82.774 40.9728 83.4664 40.6841 83.9932 40.1806C84.0287 40.1269 83.9401 40.0373 83.9002 40.0732C83.5386 40.3597 83.0933 40.5171 82.6338 40.5209C81.5401 40.5209 81.1106 39.4463 81.3453 38.0226C82.8685 37.7718 84.2412 37.0689 84.3563 36.272C84.436 35.8242 84.0951 35.5511 83.4442 35.5511V35.5287ZM83.3379 36.5272C83.1962 37.1898 82.4523 37.6017 81.3718 37.83C81.5667 36.7645 82.0493 35.8914 82.8198 35.8914C83.1696 35.8914 83.4442 36.075 83.3379 36.5272ZM90.2545 39.8045C89.9268 40.1493 89.6257 40.3776 89.4442 40.3776C89.2626 40.3776 89.1696 40.1358 89.2493 39.6478L90.0198 35.4481C90.0198 35.4078 89.887 35.3675 89.8604 35.4213C89.7882 35.5973 89.6723 35.7516 89.5239 35.869C89.4084 35.7509 89.2703 35.6578 89.118 35.5954C88.9657 35.5331 88.8025 35.5028 88.6383 35.5063C87.2257 35.5063 85.4146 37.745 85.1534 39.603C85.025 40.5836 85.3748 40.982 85.9504 40.982C86.836 40.982 87.9076 39.9881 88.6604 38.3897L88.4523 39.6299C88.284 40.5567 88.4124 40.9283 88.8951 40.9283C89.3777 40.9283 89.8117 40.5567 90.3696 39.8941C90.4095 39.8403 90.3076 39.7329 90.2545 39.7866V39.8045ZM86.5349 40.2523C86.0921 40.2523 85.8973 39.8403 86.039 38.8688C86.287 37.2749 87.2124 36.0794 88.1157 36.066C88.7401 36.066 89.0014 36.5585 88.8597 37.2614C88.5984 38.5643 87.4604 40.2523 86.5349 40.2523ZM94.8685 35.5869C94.1512 35.5869 93.4604 37.0644 92.9777 38.6718L93.239 37.1674C93.4338 35.972 93.2744 35.5869 92.7962 35.5869C92.318 35.5869 91.8796 35.8959 91.3349 36.5451C91.2818 36.5988 91.3836 36.7063 91.4368 36.6525C91.6288 36.3997 91.9007 36.2211 92.2073 36.1466C92.4154 36.1466 92.5836 36.3705 92.4419 37.2346L91.977 39.8493C91.9106 40.297 91.7822 40.794 91.7822 40.8477C91.7822 40.9015 91.8353 40.9373 92.1098 40.9373C92.3844 40.9373 92.6014 40.8477 92.6279 40.7134C92.9025 39.1867 93.8811 36.3302 94.4567 36.3302C94.7268 36.3302 94.7932 36.751 95.1873 36.751C95.3013 36.7502 95.4112 36.7082 95.4972 36.6327C95.5833 36.5572 95.6398 36.4531 95.6567 36.3391C95.732 35.9272 95.2626 35.5825 94.8862 35.5825L94.8685 35.5869Z" fill="white"/>
</svg>
