<svg width="103" height="40" viewBox="0 0 103 40" fill="none" xmlns="http://www.w3.org/2000/svg">
<path d="M50.8904 18.5465L50.8495 11.4227L49.6622 15.0255H47.8198L46.5097 11.177L46.3459 19.0378L43.3572 18.9969L43.6028 4.83105L46.5916 4.872V5.40424L48.7205 11.6683L50.7676 5.44518V5.15859H53.7564L53.8792 18.5875L50.8904 18.5465Z" fill="white"/>
<path d="M63.9099 18.3009H61.8628L61.8219 11.6683L58.3009 18.5465H58.26L55.8035 18.5056L56.131 4.83105H58.1371L57.9734 12.8966L62.1494 4.95388L63.828 5.03576L63.9099 18.3009Z" fill="white"/>
<path d="M68.7 18.4646H65.7522L65.875 4.872H67.5536C67.7993 4.83105 68.0449 4.83105 68.2906 4.83105C69.5188 4.83105 70.8699 5.24047 71.8116 5.93648C72.6713 6.59155 73.1217 7.41038 73.1217 8.3111C73.1217 9.41652 72.6713 11.8321 68.7819 12.2415L68.7 18.4646ZM68.7819 6.96002V10.0716C70.9927 9.785 70.9927 8.72051 70.9927 8.27015C70.9927 7.98356 70.7471 7.73791 70.5424 7.61509C70.0511 7.28755 69.4369 7.08285 68.7819 6.96002Z" fill="white"/>
<path d="M78.9356 11.3409C81.1874 11.5456 83.1935 12.7329 83.1935 15.1894C83.1935 17.4412 80.4095 18.5875 78.4852 18.5875C77.912 18.5875 76.8476 18.5875 76.1106 18.5875C76.0697 15.1484 75.9878 6.42785 75.9878 4.87207C77.4617 4.87207 80.4095 4.87207 81.9243 4.87207C81.9243 5.40431 81.9243 6.46879 81.9243 6.91915C81.1874 6.91915 79.3859 6.96009 78.8946 6.91915L78.9356 11.3409ZM81.1055 15.1894C81.1055 15.1484 81.1055 13.7155 78.9356 13.4289V16.4995C79.5497 16.4176 80.2048 16.2129 80.6551 15.8444C80.8598 15.6807 81.1055 15.476 81.1055 15.1894Z" fill="white"/>
<path d="M87.2876 7.20567V9.41652H91.3408V11.7911H87.4104L87.2876 15.7215H91.7502V18.5465H87.2876H84.5854V15.7215V11.7911V9.41652V7.20567V4.83105H87.2876H91.7502V7.20567H87.2876Z" fill="white"/>
<path d="M92.4053 16.0493L94.3295 14.903C95.2712 16.4178 96.0491 16.3769 96.3357 16.3769C97.1955 16.3359 98.219 15.1077 98.219 14.3707C98.219 13.7975 97.1545 12.6921 95.7216 12.6921V10.4403C96.5404 10.4403 97.4411 10.0719 97.9733 9.49867C98.2599 9.17114 98.3828 8.88455 98.3828 8.76172C98.3418 8.02477 97.8915 6.96029 96.786 6.96029C96.2538 6.96029 95.5168 7.08311 95.1484 8.06571L93.0194 7.24688C93.6335 5.60921 94.9846 4.7085 96.7451 4.7085C99.1197 4.7085 100.512 6.75558 100.635 8.67984C100.675 9.49867 100.307 10.3584 99.611 11.0954C99.4063 11.3001 99.2016 11.4639 98.9969 11.6276C99.8976 12.3646 100.471 13.3472 100.471 14.4117C100.471 16.254 98.5875 18.5877 96.4176 18.6696C96.3357 18.6696 96.2947 18.6696 96.2538 18.6696C95.1893 18.6287 93.6745 18.1783 92.4053 16.0493Z" fill="white"/>
<path d="M45.7319 36.4381L43.0298 36.3972L43.3164 22.7227H49.4986V25.4248H45.9366L45.7319 36.4381Z" fill="white"/>
<path d="M54.698 36.3562H51.7502L51.8731 22.7636H53.5517C53.7973 22.7227 54.043 22.7227 54.2886 22.7227C55.5169 22.7227 56.8679 23.1321 57.8096 23.8281C58.6694 24.4831 59.1197 25.302 59.1197 26.2027C59.1197 27.3081 58.6694 29.7237 54.7799 30.1331L54.698 36.3562ZM54.7799 24.8516V27.9632C56.9908 27.6766 56.9908 26.6121 56.9908 26.1618C56.9908 25.8752 56.7451 25.6295 56.5404 25.5067C56.0491 25.1792 55.3941 24.9744 54.7799 24.8516Z" fill="white"/>
<path d="M65.6296 33.3265H62.2724L61.5354 36.4381H59.1199L62.7227 22.7227H66.2437L69.3553 36.2743L66.3256 36.3153C66.2028 35.9059 65.7934 34.0635 65.6296 33.3265ZM64.9745 30.3378L64.1148 25.8342L63.0503 30.3378H64.9745Z" fill="white"/>
<path d="M78.1167 22.7227V36.7656H75.742V30.87H73.654L73.5721 36.3972L71.1975 36.3562L71.4022 22.7227L73.7768 22.7636L73.695 27.6766H75.742V22.7227H78.1167Z" fill="white"/>
<path d="M89.5393 36.1925H87.4922L87.4513 29.519L83.9303 36.4381H83.8894L81.4329 36.3972L81.7604 22.7227H83.7665L83.6028 30.7882L87.7788 22.8455L89.4574 22.9274L89.5393 36.1925Z" fill="white"/>
<path d="M100.962 38.1167L99.038 38.2395L98.9152 36.3153L93.1424 36.3972V36.1925H93.1014L92.8967 22.7636L95.2304 22.7227L95.3942 33.3675L97.4413 33.3265L97.2775 22.7636L99.6112 22.7227L99.7749 33.2856H100.717V35.3327L100.962 38.1167Z" fill="white"/>
<path d="M2.37451 30.2561C2.78393 31.1568 3.27523 31.9756 3.84841 32.6716C4.99478 34.0636 6.50962 35.1281 8.5567 35.9469C8.39294 35.2919 8.27011 34.5959 8.18823 33.8999C8.02446 32.3441 8.02446 30.6245 8.18823 28.7412C6.38679 29.56 4.42159 30.0513 2.37451 30.2561Z" fill="white"/>
<path d="M22.3133 20.3892C20.5528 20.9214 18.8333 21.1671 17.1956 21.1671C17.0318 21.1671 16.8681 21.1671 16.7043 21.1671C16.1721 22.0678 15.5989 22.8866 14.9847 23.6645C13.388 25.6297 11.2591 27.3083 8.8435 28.4547C8.63879 30.4608 8.59785 32.2213 8.80255 33.859C8.88444 34.6369 9.0482 35.4557 9.25291 36.2336C10.0717 36.5202 11.0134 36.8068 12.1598 37.0934C12.3645 35.2919 12.8967 33.7771 13.7156 32.5898C16.0083 29.3144 20.43 28.6594 23.7463 29.4782C27.1854 30.297 30.1332 32.6307 31.5252 35.6195C33.04 34.4731 34.3911 33.0401 35.4146 31.4434C32.385 31.2387 30.0513 30.5836 28.0861 29.3963C24.9745 27.4721 22.8046 24.0739 22.3133 20.3892Z" fill="white"/>
<path d="M4.6674 7.65625C3.27539 9.08921 2.12902 10.4812 1.63772 12.4055C0.982654 14.9848 1.0236 18.2601 1.06454 21.1261C1.06454 21.9039 1.06454 22.6818 1.06454 23.4188C1.06454 25.6706 1.39207 27.7995 2.08808 29.6419C4.21705 29.4372 6.34601 28.905 8.27027 28.0452C8.47498 26.1209 8.88439 24.1557 9.21193 22.4362C9.41664 21.3717 9.62134 20.2663 9.94888 19.1609C8.80251 18.4239 7.86085 17.5641 7.08296 16.5406C5.1587 13.8384 4.74929 10.4812 4.6674 7.65625Z" fill="white"/>
<path d="M8.96631 27.7585C11.1772 26.6531 13.1014 25.1382 14.5344 23.2959C15.0666 22.6408 15.5579 21.9038 16.0492 21.1259C14.0431 20.9622 12.1598 20.389 10.5221 19.4883C10.2355 20.5118 10.0308 21.5354 9.82608 22.5589C9.53949 24.1556 9.21196 25.9571 8.96631 27.7585Z" fill="white"/>
<path d="M20.2661 11.6274C21.4944 11.7093 22.8045 11.873 24.3603 12.2006C25.261 10.8495 26.4074 9.66217 27.6766 8.8024C28.741 8.06545 29.9283 7.53321 31.2385 7.16473C28.7001 4.79011 25.6704 3.02962 22.436 2.12891L21.0031 8.5158C20.7574 9.45746 20.5118 10.5219 20.2661 11.6274Z" fill="white"/>
<path d="M20.1024 12.2007C19.4883 14.6572 18.5876 17.7278 17.0728 20.5528C17.1137 20.5528 17.1546 20.5528 17.1956 20.5528C18.7923 20.5528 20.5119 20.3071 22.2723 19.7749C22.2723 19.5702 22.2314 19.3655 22.2314 19.2017C22.1905 16.9909 22.8046 14.7391 23.951 12.7739C22.518 12.4463 21.2488 12.2826 20.1024 12.2007Z" fill="white"/>
<path d="M13.7155 3.19339C12.8148 3.47998 11.914 3.80752 11.0133 4.05317C9.25284 4.54447 7.20575 5.11765 5.77279 6.55061L5.28149 7.04191C5.32244 9.86688 5.60903 13.3879 7.61517 16.131C8.27024 17.0317 9.13001 17.8505 10.1536 18.5056C10.8905 16.131 11.914 14.4523 13.3879 13.3469C14.9847 12.0777 17.0318 11.5045 19.6111 11.5455C19.8977 10.4401 20.1433 9.2937 20.348 8.35204L21.781 1.9242C19.1198 1.35102 16.3767 2.25173 13.7155 3.19339Z" fill="white"/>
<path d="M10.6858 18.8742C12.3644 19.8568 14.3296 20.43 16.3767 20.5528C17.8915 17.7688 18.8332 14.6981 19.4473 12.2007C17.0317 12.2007 15.1894 12.7329 13.7564 13.8384C12.4053 14.9438 11.4227 16.5405 10.6858 18.8742Z" fill="white"/>
<path d="M35.3326 12.4873C34.5138 13.3471 33.5721 14.2069 32.5486 15.0257C32.9989 15.2713 33.4084 15.517 33.7768 15.7626C35.2098 16.7043 36.5199 18.0554 37.7482 19.7749C37.6663 19.1199 37.5435 18.4238 37.3797 17.8097C36.9703 15.9673 36.2743 14.2069 35.3326 12.4873Z" fill="white"/>
<path d="M32.0165 15.4351C30.7882 16.3767 29.4371 17.2365 27.9632 18.0144C26.2027 18.956 24.5241 19.693 22.8865 20.2252C23.3368 23.7462 25.4249 27.0215 28.4136 28.782C30.3788 29.9284 32.7125 30.5835 35.7831 30.7472C36.1106 30.1741 36.3972 29.5599 36.6429 28.9867C37.6255 26.6121 38.0349 23.869 37.8711 21.0441C36.52 18.9151 35.0461 17.2774 33.4494 16.2539C33.04 16.0082 32.5896 15.7217 32.0165 15.4351Z" fill="white"/>
<path d="M31.7297 7.65625C30.3787 7.98378 29.1095 8.55697 28.004 9.29392C26.8577 10.0718 25.7932 11.1363 24.9744 12.3236C27.0214 12.8149 29.6008 13.5109 31.9754 14.6982C33.1218 13.8384 34.1453 12.8968 35.046 11.9142C34.2681 10.5631 33.3265 9.33486 32.262 8.18849C32.0573 8.02472 31.8935 7.86096 31.7297 7.65625Z" fill="white"/>
<path d="M22.8864 19.6109C24.4422 19.1196 26.0389 18.3827 27.7175 17.482C29.0277 16.745 30.2969 15.9671 31.4432 15.1483C29.1096 14.0019 26.6121 13.3468 24.6469 12.8965C23.4596 14.8207 22.8455 17.0316 22.8864 19.2015C22.8455 19.3243 22.8455 19.4472 22.8864 19.6109Z" fill="white"/>
<path d="M12.7737 37.2161C13.0193 37.257 13.265 37.3389 13.5106 37.3798C17.7686 38.3215 21.9446 39.0994 25.916 38.1987C27.6764 37.7892 29.4369 37.0114 31.0337 35.9469C29.7645 33.081 26.9395 30.8292 23.6232 30.0513C19.9385 29.1506 16.049 30.3379 14.2476 32.9581C13.4697 34.0636 12.9784 35.4965 12.7737 37.2161Z" fill="white"/>
</svg>
