<svg width="59" height="40" viewBox="0 0 59 40" fill="none" xmlns="http://www.w3.org/2000/svg">
<path fill-rule="evenodd" clip-rule="evenodd" d="M9.84157 1.10956C2.93492 5.03769 1.17092 6.08883 0.78203 6.50799C0.541373 6.76736 0.267196 7.25795 0.172658 7.59835C0.0581061 8.01132 0.000504675 13.0101 1.65269e-05 22.6219C-0.000797053 35.3971 0.0276783 37.0677 0.252389 37.3884C0.553088 37.8178 0.844675 37.8432 1.38782 37.4873L1.78892 37.2245L1.7925 23.1276C1.79591 9.77028 1.81186 8.99657 2.09645 8.37987C2.26161 8.0219 2.57125 7.57199 2.78441 7.38015C2.99757 7.1883 5.1726 5.88593 7.61773 4.48608C10.0629 3.08607 12.2047 1.85252 12.3772 1.7448C12.9602 1.38065 12.6507 0 11.986 0C11.8796 0 10.9145 0.499375 9.84157 1.10956ZM13.936 3.38189C10.5269 5.33188 10.072 5.91684 9.93074 8.53266L9.84336 10.1501L8.89554 10.7031C7.49716 11.5192 5.75219 13.2368 5.18968 14.3512C4.14618 16.4185 4.17157 16.0923 4.11348 28.1499C4.05767 39.7092 4.06629 39.8638 4.77036 39.9995C5.09254 40.0615 15.11 34.3607 15.8432 33.698C16.7972 32.8356 16.7588 33.5149 16.7588 17.5089C16.7588 4.34452 16.7318 2.76243 16.5032 2.53365C16.3624 2.39306 16.1611 2.27835 16.0557 2.27867C15.9501 2.279 14.9964 2.77545 13.936 3.38189ZM25.9825 8.65324C24.1179 8.89829 23.1047 9.85001 23.1047 11.3561C23.1047 12.0483 23.18 12.254 23.5805 12.6544C24.1601 13.234 24.4688 13.3613 26.8408 13.9981C27.8666 14.2736 28.8003 14.5772 28.9155 14.6729C29.0308 14.7688 29.1252 15.0559 29.1252 15.3114C29.1252 15.9431 28.509 16.3199 27.3562 16.3936C26.2142 16.4667 25.4008 16.0905 25.0687 15.336C24.8388 14.8138 24.8219 14.8072 23.7263 14.8072C22.4836 14.8072 22.4556 14.8441 22.9225 15.8715C23.5899 17.3411 25.1128 17.9913 27.5848 17.862C28.8315 17.7967 29.215 17.7072 29.9391 17.3127C30.9359 16.7693 31.4036 16.0475 31.4026 15.0538C31.4013 13.6057 30.5379 12.9792 27.5818 12.2815C25.7785 11.8558 25.22 11.5681 25.22 11.0647C25.22 9.86921 28.4322 9.78493 28.7303 10.9726C28.83 11.3704 28.8881 11.3901 29.9594 11.3901H31.084L30.9802 10.9427C30.7737 10.0532 30.3361 9.52442 29.442 9.08378C28.4566 8.59808 27.4019 8.46676 25.9825 8.65324ZM35.6801 8.82734C35.5525 8.99315 33.6233 13.3427 32.0715 16.9631L31.7402 17.736H32.917H34.0937L34.4815 16.7597L34.8692 15.7835H36.8389H38.8084L39.1871 16.7597L39.5655 17.736H40.7669H41.9682L41.6369 16.9631C40.0851 13.3427 38.1559 8.99315 38.0284 8.82734C37.9329 8.70303 37.4766 8.62395 36.8542 8.62395C36.2318 8.62395 35.7756 8.70303 35.6801 8.82734ZM40.2996 8.74599C40.2597 8.81319 40.9773 10.845 41.8939 13.2614L43.5606 17.6547L44.8595 17.7015L46.1586 17.7484L47.6385 13.8777C48.4525 11.7489 49.2346 9.73074 49.3767 9.39311C49.6919 8.64396 49.5998 8.5849 48.2261 8.65584L47.268 8.70531L46.129 11.7557C45.5026 13.4333 44.9451 14.8063 44.8901 14.8067C44.8353 14.8068 44.3322 13.544 43.7722 12.0003C43.2122 10.4566 42.6871 9.0654 42.6052 8.9087C42.4871 8.68269 42.2417 8.62395 41.4142 8.62395C40.8409 8.62395 40.3393 8.67878 40.2996 8.74599ZM50.441 13.1771V17.736H54.3462H58.2514V16.9225V16.1089H55.4852H52.719V14.9699V13.8309H55.2501H57.7811L57.7315 13.058L57.6819 12.2851L55.2004 12.2401L52.719 12.1952V11.3084V10.4216L55.4445 10.3771L58.17 10.3325V9.51889V8.70531L54.3055 8.6617L50.441 8.61809V13.1771ZM37.926 13.5461L38.2326 14.319H36.8558C35.2913 14.319 35.3859 14.5287 36.122 12.6918C36.8905 10.7738 36.7618 10.8694 37.2164 11.8783C37.438 12.3705 37.7575 13.1211 37.926 13.5461ZM35.0062 20.4108C32.8125 21.123 32.3065 23.6729 34.1548 24.7019C34.476 24.8807 35.6176 25.2542 36.6915 25.5314C38.0523 25.8831 38.7303 26.1397 38.9288 26.3787C39.2967 26.8216 39.2891 26.9051 38.8314 27.4372C38.5136 27.8065 38.2863 27.8933 37.4838 27.9514C36.1845 28.0452 35.3792 27.7083 35.0564 26.9354L34.8159 26.36H33.6962H32.5766L32.6967 26.8927C33.1056 28.706 34.6968 29.5456 37.4924 29.4233C40.057 29.3112 41.3289 28.3728 41.3289 26.5925C41.3289 25.0959 40.4831 24.486 37.5051 23.8353C35.5639 23.4111 35.0271 23.0848 35.228 22.4516C35.5689 21.3776 38.0951 21.3931 38.6532 22.4724C38.8841 22.919 38.951 22.943 39.9676 22.943H41.0388L40.9285 22.4955C40.7282 21.6829 40.2644 21.0771 39.5307 20.6698C38.9272 20.3349 38.5497 20.2607 37.261 20.2243C36.2583 20.196 35.4661 20.2614 35.0062 20.4108ZM24.2942 24.5312C23.2926 26.8346 22.4231 28.8509 22.3619 29.0116C22.2601 29.2788 22.352 29.2998 23.4267 29.2557L24.6032 29.2075L24.962 28.3126L25.3209 27.4176L27.2893 27.3721L29.2575 27.3265L29.6381 28.3077L30.0185 29.2889H31.199C31.8483 29.2889 32.3795 29.2549 32.3795 29.2132C32.3795 29.1716 31.5816 27.3122 30.6061 25.0812C29.6308 22.8504 28.7838 20.8708 28.7239 20.6823C28.6257 20.3727 28.494 20.3397 27.3651 20.3413L26.115 20.3429L24.2942 24.5312ZM28.0544 24.2761C28.3749 25.0542 28.6371 25.7314 28.6371 25.7812C28.6371 25.8312 28.0513 25.8718 27.3353 25.8718C26.6194 25.8718 26.0336 25.8238 26.0336 25.7651C26.0336 25.4597 27.2701 22.6551 27.3628 22.7501C27.4227 22.8115 27.734 23.4981 28.0544 24.2761ZM42.6306 28.5482V29.4516H43.534H44.4376L44.3883 28.5973L44.3392 27.7431L43.4849 27.6939L42.6306 27.6446V28.5482Z" fill="white"/>
</svg>
